<svg height="512" viewBox="0 0 512 512" width="512" xmlns="http://www.w3.org/2000/svg"><g id="Flat"><path d="m24 200v32h32v-32a144 144 0 0 1 144-144 144 144 0 0 1 144 144v32h32v-32a176 176 0 0 0 -176-176 176 176 0 0 0 -176 176z" fill="#85ccd5"/><path d="m320 248h-112v-80l32-32h48l32 32z" fill="#ffb431"/><path d="m240 88h48v48h-48z" fill="#d65246"/><path d="m256 168h64v16h-64z" fill="#ffc261"/><path d="m92.686 131.314 59.314-59.314 40 40-16 16 27.314 27.314a16 16 0 0 1 4.686 11.313v161.373a16 16 0 0 1 -16 16h-88a16 16 0 0 1 -16-16v-185.373a16 16 0 0 1 4.686-11.313z" fill="#8851a0"/><path d="m152 72 24-24h24l16 16v24l-24 24z" fill="#d65246"/><path d="m344 200v32l-32 256h-224l-32-256v-32z" fill="#348ed8"/><path d="m344 224v8l-1 8h-263v-16z" fill="#2c86d1"/><path d="m208 408v80h-120l-10-80z" fill="#2c86d1"/><path d="m456 232h-112a48 48 0 0 1 48-48h64z" fill="#d65246"/><g fill="#c94c41"><path d="m432 232h24a0 0 0 0 1 0 0v48a0 0 0 0 1 0 0 24 24 0 0 1 -24-24v-24a0 0 0 0 1 0 0z"/><path d="m456 192h32v32h-32z"/><path d="m376 232h40v32h-40z"/></g><path d="m416 264h-40a151.383 151.383 0 0 1 -36.444 98.518l-11.556 13.482v96a16 16 0 0 0 16 16h104a16 16 0 0 0 16-16v-96l-11.556-13.482a151.383 151.383 0 0 1 -36.444-98.518z" fill="#ffb431"/><path d="m360 376h104v16h-104z" fill="#ffc261"/><path d="m120.531 311.469 47.469-47.469v-64h128v184a16 16 0 0 1 -16 16 16 16 0 0 1 -16-16 16 16 0 0 1 -16 16 16 16 0 0 1 -16-16 16 16 0 0 1 -16 16 16 16 0 0 1 -16-16 16 16 0 0 1 -16 16 16 16 0 0 1 -16-16v-75l-27.372 23.95a14.716 14.716 0 0 1 -21.936-2.912 14.717 14.717 0 0 1 1.839-18.569z" fill="#4db6e4"/><path d="m256 320h16v64h-16z" fill="#3ba5d3"/><path d="m224 320h16v64h-16z" fill="#3ba5d3"/><path d="m192 320h16v64h-16z" fill="#3ba5d3"/><path d="m24 424h168v64h-168z" fill="#ffb431"/><path d="m24 392h168v32h-168z" fill="#5f9448"/><path d="m48 448h16v16h-16z" fill="#f9a40f"/><path d="m80 440h16v16h-16z" fill="#f9a40f"/><path d="m152 448h16v16h-16z" fill="#f9a40f"/></g></svg>